<svg xmlns="http://www.w3.org/2000/svg" width="720" height="360" viewBox="0 0 720 360" role="img" aria-labelledby="title desc"><title id="title">AI HealthAssist</title><desc id="desc">Distinct conceptual illustration of clinical triage; click through to explore the project.</desc><defs><linearGradient id="bg" x2="1" y2="1"><stop stop-color="#07151f"/><stop offset="1" stop-color="#122d3a"/></linearGradient><pattern id="grid" width="28" height="28" patternUnits="userSpaceOnUse"><path d="M28 0H0V28" fill="none" stroke="#6b94a1" stroke-width=".6" opacity=".23"/></pattern></defs><rect width="720" height="360" rx="18" fill="url(#bg)"/><rect width="720" height="360" rx="18" fill="url(#grid)"/><path d="M0 0h7v360H0" fill="#19c9b0"/><g font-family="Arial,Helvetica,sans-serif"><text x="30" y="46" fill="#19c9b0" font-size="13" font-weight="700" letter-spacing="2">CLINICAL TRIAGE</text><text x="30" y="97" fill="#f3f7f7" font-size="32" font-weight="700">AI HealthAssist</text><path d="M30 118h276" stroke="#19c9b0" stroke-width="2" opacity=".7"/><text x="30" y="294" fill="#8fb5bf" font-size="12" letter-spacing="1">MUHAMMAD SAFDAR  /  SELECT TO EXPLORE</text></g><g font-family="Arial,Helvetica,sans-serif"><g transform="translate(390 65)"><rect width="285" height="245" rx="17" fill="#0e3440" stroke="#397e84"/><rect x="18" y="18" width="249" height="37" rx="7" fill="#124a55"/><circle cx="38" cy="37" r="8" fill="#19c9b0"/><text x="58" y="42" font-size="16" fill="#e5fbf6">Care pathway</text><path d="M26 105h27l13-28 23 67 22-40h20l11-18 21 26h89" fill="none" stroke="#47ddbd" stroke-width="5"/><rect x="25" y="166" width="65" height="45" rx="8" fill="#1b6670"/><rect x="110" y="166" width="65" height="45" rx="8" fill="#1b6670"/><rect x="195" y="166" width="65" height="45" rx="8" fill="#1b6670"/><text x="58" y="193" text-anchor="middle" fill="white" font-size="13">Intake</text><text x="143" y="193" text-anchor="middle" fill="white" font-size="13">Assess</text><text x="227" y="193" text-anchor="middle" fill="white" font-size="13">Guide</text></g></g></svg>