<svg xmlns="http://www.w3.org/2000/svg" width="700" height="280" viewBox="0 0 700 280" role="img" aria-labelledby="t d"><title id="t">Alfanar MEP OCR</title><desc id="d">MEP document processing; Text to structured fields. Conceptual project infographic, not a measured map.</desc><defs><linearGradient id="g" x2="1" y2="1"><stop stop-color="#071824"/><stop offset="1" stop-color="#173545"/></linearGradient><pattern id="mesh" width="23" height="23" patternUnits="userSpaceOnUse"><path d="M23 0H0V23" fill="none" stroke="#335568" opacity=".25"/></pattern></defs><rect width="700" height="280" rx="18" fill="url(#g)"/><rect width="700" height="280" rx="18" fill="url(#mesh)"/><path d="M365 0v280" stroke="#365c6c" opacity=".7"/><g opacity=".9" fill="none" stroke="#e2a4ec" stroke-width="2"><path d="M437 54h135l45 45v124H437z" fill="#14394b" stroke="#5890a0"/><path d="M572 54v45h45M461 129h128M461 151h128M461 173h83" stroke-width="4"/><rect x="534" y="184" width="57" height="22" rx="4" fill="#e2a4ec" opacity=".4"/></g><g font-family="Arial,Helvetica,sans-serif"><text x="24" y="37" fill="#e2a4ec" font-size="11" font-weight="700" letter-spacing="2">DOCUMENT EXTRACTION</text><text x="24" y="79" fill="#f2f8fa" font-size="29" font-weight="700">Alfanar MEP OCR</text><text x="24" y="114" fill="#b8d1d9" font-size="16">MEP document processing</text><text x="24" y="139" fill="#b8d1d9" font-size="16">Text to structured fields</text><rect x="24" y="184" width="101" height="28" rx="14" fill="#1a3b4b" stroke="#426a78"/><text x="74" y="203" text-anchor="middle" fill="#d5e8ec" font-size="12">Scan</text><rect x="134" y="184" width="101" height="28" rx="14" fill="#1a3b4b" stroke="#426a78"/><text x="184" y="203" text-anchor="middle" fill="#d5e8ec" font-size="12">Extract</text><rect x="244" y="184" width="101" height="28" rx="14" fill="#1a3b4b" stroke="#426a78"/><text x="294" y="203" text-anchor="middle" fill="#d5e8ec" font-size="12">Verify</text><text x="24" y="253" fill="#87a9b5" font-size="11">PROJECT OVERVIEW  ·  SELECT TO EXPLORE</text></g></svg>