<svg xmlns="http://www.w3.org/2000/svg" width="720" height="360" viewBox="0 0 720 360" role="img" aria-labelledby="title desc"><title id="title">Infrastructure GIS</title><desc id="desc">Distinct conceptual illustration of transport network; click through to explore the project.</desc><defs><linearGradient id="bg" x2="1" y2="1"><stop stop-color="#07151f"/><stop offset="1" stop-color="#122d3a"/></linearGradient><pattern id="grid" width="28" height="28" patternUnits="userSpaceOnUse"><path d="M28 0H0V28" fill="none" stroke="#6b94a1" stroke-width=".6" opacity=".23"/></pattern></defs><rect width="720" height="360" rx="18" fill="url(#bg)"/><rect width="720" height="360" rx="18" fill="url(#grid)"/><path d="M0 0h7v360H0" fill="#f2c36d"/><g font-family="Arial,Helvetica,sans-serif"><text x="30" y="46" fill="#f2c36d" font-size="13" font-weight="700" letter-spacing="2">TRANSPORT NETWORK</text><text x="30" y="97" fill="#f3f7f7" font-size="32" font-weight="700">Infrastructure GIS</text><path d="M30 118h276" stroke="#f2c36d" stroke-width="2" opacity=".7"/><text x="30" y="294" fill="#8fb5bf" font-size="12" letter-spacing="1">MUHAMMAD SAFDAR  /  SELECT TO EXPLORE</text></g><g font-family="Arial,Helvetica,sans-serif"><g transform="translate(371 52)"><rect x="12" y="10" width="305" height="264" rx="12" fill="#173a43" stroke="#537780"/><path d="M25 65h280M25 154h280M25 231h280M79 20v242M170 20v242M256 20v242" stroke="#5e858a" stroke-width="3"/><path d="M28 231q55-75 139-79t137-115" fill="none" stroke="#f7c65b" stroke-width="13"/><path d="M79 22q2 104 92 130t88 107" fill="none" stroke="#f0a662" stroke-width="7"/><circle cx="169" cy="153" r="15" fill="#132a34" stroke="#ffe4a0" stroke-width="5"/><circle cx="257" cy="75" r="11" fill="#ffe4a0"/><rect x="17" y="14" width="67" height="25" rx="5" fill="#233b43"/><text x="26" y="31" fill="#f8dda1" font-size="11">GIS GRID</text></g></g></svg>