<svg xmlns="http://www.w3.org/2000/svg" width="720" height="360" viewBox="0 0 720 360" role="img" aria-labelledby="title desc"><title id="title">Python &amp; AI Analytics Lab</title><desc id="desc">Distinct conceptual illustration of code · data · models; click through to explore the project.</desc><defs><linearGradient id="bg" x2="1" y2="1"><stop stop-color="#07151f"/><stop offset="1" stop-color="#122d3a"/></linearGradient><pattern id="grid" width="28" height="28" patternUnits="userSpaceOnUse"><path d="M28 0H0V28" fill="none" stroke="#6b94a1" stroke-width=".6" opacity=".23"/></pattern></defs><rect width="720" height="360" rx="18" fill="url(#bg)"/><rect width="720" height="360" rx="18" fill="url(#grid)"/><path d="M0 0h7v360H0" fill="#f6da8a"/><g font-family="Arial,Helvetica,sans-serif"><text x="30" y="46" fill="#f6da8a" font-size="13" font-weight="700" letter-spacing="2">CODE · DATA · MODELS</text><text x="30" y="97" fill="#f3f7f7" font-size="25" font-weight="700">Python &amp; AI Analytics Lab</text><path d="M30 118h276" stroke="#f6da8a" stroke-width="2" opacity=".7"/><text x="30" y="294" fill="#8fb5bf" font-size="12" letter-spacing="1">MUHAMMAD SAFDAR  /  SELECT TO EXPLORE</text></g><g font-family="Arial,Helvetica,sans-serif"><g transform="translate(378 52)"><rect x="4" y="9" width="316" height="245" rx="12" fill="#1b3039" stroke="#d8b95d"/><rect x="4" y="9" width="316" height="30" rx="12" fill="#34444c"/><circle cx="25" cy="24" r="5" fill="#f18973"/><circle cx="42" cy="24" r="5" fill="#e9c569"/><circle cx="59" cy="24" r="5" fill="#76d5aa"/><text x="25" y="73" fill="#d2ddcf" font-family="monospace" font-size="14">&gt; import pandas as pd</text><text x="25" y="101" fill="#92d9bb" font-family="monospace" font-size="14">&gt; data → insight</text><path d="M34 199h247M34 199v-74" stroke="#aab9a5" stroke-width="2"/><path d="M43 181l43-25 41 9 44-35 42 11 54-42" fill="none" stroke="#f8d987" stroke-width="5"/><circle cx="267" cy="99" r="6" fill="#f8d987"/></g></g></svg>