<svg xmlns="http://www.w3.org/2000/svg" width="720" height="360" viewBox="0 0 720 360" role="img" aria-labelledby="title desc"><title id="title">GeoAI Resilience Suite</title><desc id="desc">Distinct conceptual illustration of five workflows; click through to explore the project.</desc><defs><linearGradient id="bg" x2="1" y2="1"><stop stop-color="#07151f"/><stop offset="1" stop-color="#122d3a"/></linearGradient><pattern id="grid" width="28" height="28" patternUnits="userSpaceOnUse"><path d="M28 0H0V28" fill="none" stroke="#6b94a1" stroke-width=".6" opacity=".23"/></pattern></defs><rect width="720" height="360" rx="18" fill="url(#bg)"/><rect width="720" height="360" rx="18" fill="url(#grid)"/><path d="M0 0h7v360H0" fill="#92d78e"/><g font-family="Arial,Helvetica,sans-serif"><text x="30" y="46" fill="#92d78e" font-size="13" font-weight="700" letter-spacing="2">FIVE WORKFLOWS</text><text x="30" y="97" fill="#f3f7f7" font-size="32" font-weight="700">GeoAI Resilience Suite</text><path d="M30 118h276" stroke="#92d78e" stroke-width="2" opacity=".7"/><text x="30" y="294" fill="#8fb5bf" font-size="12" letter-spacing="1">MUHAMMAD SAFDAR  /  SELECT TO EXPLORE</text></g><g font-family="Arial,Helvetica,sans-serif"><g transform="translate(384 62)"><path d="M137 80L37 22M137 80L250 21M137 80L41 208M137 80L257 214M137 80L139 224" stroke="#62a68f" stroke-width="4"/><circle cx="137" cy="80" r="49" fill="#215751" stroke="#a0e3a2" stroke-width="3"/><text x="137" y="86" text-anchor="middle" font-size="20" font-weight="700" fill="#f2fff0">GeoAI</text><circle cx="37" cy="22" r="34" fill="#173f43" stroke="#87cc95" stroke-width="2"/><text x="37" y="26" text-anchor="middle" font-size="11" fill="#e8f8e8">Urban</text><circle cx="250" cy="21" r="34" fill="#173f43" stroke="#87cc95" stroke-width="2"/><text x="250" y="25" text-anchor="middle" font-size="11" fill="#e8f8e8">Flood</text><circle cx="41" cy="208" r="34" fill="#173f43" stroke="#87cc95" stroke-width="2"/><text x="41" y="212" text-anchor="middle" font-size="11" fill="#e8f8e8">Utility</text><circle cx="257" cy="214" r="34" fill="#173f43" stroke="#87cc95" stroke-width="2"/><text x="257" y="218" text-anchor="middle" font-size="11" fill="#e8f8e8">EO</text><circle cx="139" cy="224" r="34" fill="#173f43" stroke="#87cc95" stroke-width="2"/><text x="139" y="228" text-anchor="middle" font-size="11" fill="#e8f8e8">Drainage</text></g></g></svg>